
<svg width="17" height="17" viewBox="0 0 17 17" fill="none" xmlns="http://www.w3.org/2000/svg">
<g clip-path="url(#clip0_11796_33268)">
<path d="M16.3596 6.57763C16.0378 4.72777 15.0713 3.05222 13.6321 1.84903C12.1928 0.645847 10.3742 -0.00697776 8.49962 0.00667975H8.21962C8.01962 0.00667975 7.81962 0.00667975 7.62629 0.0467465C6.11193 0.214728 4.67975 0.822913 3.50629 1.79633C2.25652 2.7837 1.33337 4.12592 0.857584 5.6474C0.381799 7.16887 0.375539 8.79877 0.839622 10.3239C1.14216 11.4818 1.71701 12.5503 2.51611 13.4402C3.31521 14.3301 4.31536 15.0155 5.43295 15.4391C6.40748 15.833 7.44875 16.0348 8.49962 16.0334C9.15725 16.0326 9.81262 15.9564 10.453 15.8063C11.6883 15.5523 12.8368 14.9817 13.7863 14.1503C14.8549 13.2361 15.6579 12.0504 16.1108 10.7178C16.5636 9.3852 16.6496 7.95501 16.3596 6.57763ZM13.1263 12.5876C12.5238 13.2042 11.8038 13.6934 11.0091 14.026C10.2143 14.3587 9.36096 14.5281 8.49962 14.5242C7.63634 14.5184 6.78269 14.3421 5.9876 14.0052C5.19251 13.6683 4.47163 13.1775 3.86629 12.5609C3.27805 11.9723 2.8143 11.271 2.50274 10.4988C2.19118 9.72665 2.0382 8.8995 2.05295 8.06678C2.11962 4.27379 4.77295 1.62938 8.49962 1.62271C12.2463 1.62271 14.893 4.29383 14.9463 8.08681C14.959 8.91985 14.8045 9.74695 14.4918 10.519C14.1792 11.291 13.7148 11.9922 13.1263 12.581V12.5876Z" fill="#ECB11C"/>
<path d="M13.3594 6.45068C13.3014 6.28805 13.1918 6.149 13.0472 6.05489C12.9027 5.96078 12.7313 5.91684 12.5594 5.92981H10.0394L9.37273 3.88641L9.24606 3.51245C9.20352 3.34584 9.10729 3.19795 8.97229 3.0917C8.83729 2.98546 8.67107 2.92679 8.49939 2.9248C8.32886 2.93025 8.16435 2.98929 8.02915 3.09355C7.89396 3.19781 7.79492 3.34202 7.74606 3.50577L6.97273 5.92981H4.41939C4.29011 5.93033 4.1627 5.96072 4.04706 6.01864C3.93143 6.07655 3.8307 6.16041 3.75273 6.2637C3.68455 6.35922 3.64046 6.46983 3.62421 6.58611C3.60795 6.70239 3.62003 6.82089 3.65939 6.93148C3.73129 7.11734 3.85657 7.27768 4.01939 7.39225C4.68606 7.88641 5.35273 8.37389 6.01939 8.86804C5.77273 9.6026 5.53273 10.3438 5.29939 11.0851L5.23273 11.2854C5.19549 11.3944 5.18101 11.51 5.19018 11.6248C5.19936 11.7397 5.23199 11.8515 5.28606 11.9532C5.3418 12.0472 5.4171 12.128 5.50683 12.1902C5.59656 12.2525 5.69862 12.2946 5.80606 12.3138C5.85473 12.3203 5.90405 12.3203 5.95273 12.3138C6.14869 12.3227 6.34174 12.2638 6.49939 12.1468L7.16606 11.666L8.49939 10.6911L9.87939 11.6994L10.5461 12.1802C10.6372 12.2574 10.7441 12.3136 10.8593 12.3448C10.9746 12.3759 11.0952 12.3813 11.2127 12.3605C11.3211 12.3414 11.4241 12.2993 11.5149 12.2372C11.6057 12.175 11.6823 12.0941 11.7394 11.9999C11.7961 11.8993 11.8308 11.7876 11.8412 11.6725C11.8515 11.5574 11.8373 11.4414 11.7994 11.3322C11.5394 10.5241 11.2794 9.7228 11.0127 8.90811L12.6327 7.73282L13.0527 7.42564C13.2102 7.32523 13.3272 7.17243 13.3833 6.99411C13.4394 6.81578 13.4309 6.62336 13.3594 6.45068ZM10.2594 7.92647C10.0311 8.07575 9.86307 8.30118 9.78496 8.56278C9.70686 8.82438 9.72378 9.10523 9.83273 9.35552L10.1727 10.4173L9.30606 9.78958C9.08811 9.60462 8.81171 9.50311 8.52606 9.50311C8.2404 9.50311 7.96401 9.60462 7.74606 9.78958L6.89273 10.4173L7.16606 9.42898C7.29178 9.15324 7.30947 8.84024 7.21562 8.55205C7.12178 8.26386 6.92325 8.02151 6.65939 7.87305L5.83273 7.27205H6.92606C7.21072 7.29938 7.49542 7.22042 7.72551 7.05033C7.9556 6.88025 8.11487 6.63103 8.17273 6.35051L8.49939 5.34885V5.39559C8.60606 5.7228 8.70606 6.06337 8.81939 6.37723C8.88266 6.65209 9.04304 6.89476 9.27094 7.06045C9.49885 7.22614 9.77889 7.30367 10.0594 7.27873H11.1661L10.2594 7.92647Z" fill="#ECB11C"/>
</g>
<defs>
<clipPath id="clip0_11796_33268">
<rect width="16" height="16" fill="white" transform="translate(0.5 0.0200195)"/>
</clipPath>
</defs>
</svg>
